<?xml version="1.0" standalone="no"?>
<!DOCTYPE svg PUBLIC "-//W3C//DTD SVG 20010904//EN"
 "http://www.w3.org/TR/2001/REC-SVG-20010904/DTD/svg10.dtd">
<svg version="1.0" xmlns="http://www.w3.org/2000/svg"
 width="512.000000pt" height="512.000000pt" viewBox="0 0 512.000000 512.000000"
 preserveAspectRatio="xMidYMid meet">

<g transform="translate(0.000000,512.000000) scale(0.100000,-0.100000)"
fill="#000000" stroke="none">
<path d="M0 2560 l0 -2560 2560 0 2560 0 0 2560 0 2560 -2560 0 -2560 0 0
-2560z m2830 1899 c202 -25 428 -103 645 -223 11 -6 58 -36 105 -67 289 -193
539 -480 689 -793 67 -139 91 -200 94 -233 1 -17 5 -29 8 -27 8 5 31 -76 33
-115 0 -17 5 -31 9 -31 5 0 6 -14 2 -30 -4 -19 -2 -36 5 -45 7 -8 10 -22 6
-30 -3 -9 -2 -13 4 -10 12 7 17 -18 24 -110 23 -286 17 -430 -25 -634 -118
-581 -441 -1026 -916 -1264 -234 -118 -453 -177 -723 -196 -903 -62 -1780 465
-2049 1231 -64 182 -91 341 -91 533 1 309 51 540 185 849 54 126 180 323 289
454 335 402 813 683 1265 741 96 12 343 13 441 0z"/>
<path d="M2490 4283 c-126 -19 -219 -38 -291 -59 -662 -191 -1224 -820 -1345
-1504 -22 -128 -22 -363 1 -495 123 -713 692 -1227 1515 -1372 156 -27 454
-25 610 5 364 69 667 242 891 509 256 304 397 684 400 1077 1 92 4 116 15 116
18 0 18 9 -2 32 -12 12 -14 21 -7 30 7 9 6 29 -3 63 -7 28 -13 63 -14 78 -1
71 -62 294 -125 452 -216 547 -754 977 -1326 1060 -97 14 -257 18 -319 8z
m-509 -1143 c18 0 41 -11 61 -29 29 -26 33 -36 33 -79 0 -63 -26 -101 -81
-121 -59 -21 -110 -8 -130 32 -25 47 -24 139 1 167 23 26 54 41 73 34 8 -2 27
-4 43 -4z m1278 -15 c56 -28 67 -131 20 -181 -47 -50 -144 -56 -174 -10 -8 12
-18 49 -21 82 -6 55 -4 62 21 92 23 28 33 32 76 32 28 0 63 -7 78 -15z m-176
-923 c135 -3 138 -4 154 -29 15 -23 15 -28 2 -52 -13 -23 -22 -27 -84 -31
l-70 -5 0 -250 c0 -274 -6 -307 -63 -390 -29 -42 -113 -98 -172 -116 -68 -20
-220 -22 -294 -5 -146 34 -240 110 -301 239 -55 115 -67 174 -72 360 l-6 167
-39 0 c-28 0 -46 7 -63 25 -29 28 -31 42 -9 73 l16 23 431 -3 c238 -1 494 -4
570 -6z"/>
<path d="M2295 2023 c-7 -72 8 -248 26 -317 15 -57 53 -129 90 -171 92 -104
272 -141 421 -85 153 57 185 203 131 598 l-5 42 -131 0 -130 0 7 -62 c3 -35 9
-132 13 -217 6 -142 5 -155 -12 -167 -24 -17 -69 -18 -82 -1 -6 6 -13 57 -17
112 -3 55 -11 153 -17 218 l-12 117 -137 0 -138 0 -7 -67z"/>
</g>
</svg>
